<?xml version="1.0" encoding="utf-8"?>
<!-- Generator: Adobe Illustrator 15.0.0, SVG Export Plug-In . SVG Version: 6.00 Build 0)  -->
<!DOCTYPE svg PUBLIC "-//W3C//DTD SVG 1.1//EN" "http://www.w3.org/Graphics/SVG/1.1/DTD/svg11.dtd">
<svg version="1.1" id="Tryb_izolacji" xmlns="http://www.w3.org/2000/svg" xmlns:xlink="http://www.w3.org/1999/xlink" x="0px"
	 y="0px" width="178.844px" height="166.786px" viewBox="0 0 178.844 166.786" enable-background="new 0 0 178.844 166.786"
	 xml:space="preserve">
<path fill="#FFDD12" d="M162.762,74.952C173.349,23.167,135.188-2.627,89.43,0.211c39.491,2.541,69.507,28.097,59.971,74.741
	c0,10.191,20.19,26.022,15.326,31.356c-4.864,5.365-13.146,5.569-13.146,5.569s5.393,10.202,2.977,13.029
	c-2.402,2.815-9.138,1.594-9.138,1.594s6.249,4.509,6.249,7.986c0,3.478-10.521,8.135-10.521,8.135s1.317,13.363-7.343,17.068
	c1.946,0.357,4.199,0.663,6.821,0.883c15.799,1.358,13.883-17.951,13.883-17.951s10.521-4.657,10.521-8.135
	c0-3.477-6.249-7.986-6.249-7.986s6.735,1.221,9.138-1.594c2.416-2.827-2.977-13.029-2.977-13.029s8.281-0.204,13.146-5.569
	C182.951,100.974,162.762,85.143,162.762,74.952"/>
<path fill="#F36129" d="M151.075,74.952c10.587-51.785-27.574-77.579-73.332-74.741c39.491,2.541,69.507,28.097,59.971,74.741
	c0,10.191,20.19,26.022,15.326,31.356c-4.864,5.365-13.146,5.569-13.146,5.569s5.393,10.202,2.977,13.029
	c-2.402,2.815-9.138,1.594-9.138,1.594s6.249,4.509,6.249,7.986c0,3.478-10.521,8.135-10.521,8.135s1.317,13.363-7.343,17.068
	c1.946,0.357,4.199,0.663,6.821,0.883c15.799,1.358,13.883-17.951,13.883-17.951s10.521-4.657,10.521-8.135
	c0-3.477-6.249-7.986-6.249-7.986s6.735,1.221,9.138-1.594c2.416-2.827-2.977-13.029-2.977-13.029s8.281-0.204,13.146-5.569
	C171.266,100.974,151.075,85.143,151.075,74.952"/>
<path fill="#D64244" d="M53.24,1.444C2.786,9.488,1.531,39.038,0.209,53.838c-3.283,36.697,33.164,78.024,33.164,78.024
	l-0.728,14.372c17.072,10.04,38.182,17.264,61.568,20.552l2.884-11.994c0,0,2.653,4.455,18.48,5.78
	c15.799,1.358,13.883-17.95,13.883-17.95s10.521-4.658,10.521-8.136c0-3.477-6.249-7.986-6.249-7.986s6.735,1.221,9.138-1.594
	c2.416-2.827-2.978-13.028-2.978-13.028s8.282-0.205,13.146-5.569c4.864-5.335-15.326-21.166-15.326-31.357
	C149.15,19.011,103.701-6.605,53.24,1.444z"/>
</svg>
